<svg width="101" height="100" viewBox="0 0 101 100" fill="none" xmlns="http://www.w3.org/2000/svg">
<circle cx="50.2807" cy="49.8446" r="49.723" fill="white"/>
<path d="M68.3428 39.8074C67.7537 38.4435 66.9044 37.2076 65.8423 36.1687C64.7794 35.1268 63.5262 34.2988 62.1509 33.7298C60.7247 33.1374 59.1952 32.8341 57.6509 32.8377C55.4844 32.8377 53.3706 33.4309 51.5337 34.5515C51.0942 34.8196 50.6768 35.114 50.2812 35.4348C49.8857 35.114 49.4683 34.8196 49.0288 34.5515C47.1919 33.4309 45.0781 32.8377 42.9116 32.8377C41.3516 32.8377 39.8398 33.1365 38.4116 33.7298C37.0317 34.3011 35.7881 35.1228 34.7202 36.1687C33.6567 37.2064 32.8072 38.4426 32.2197 39.8074C31.6089 41.2268 31.2969 42.7342 31.2969 44.2854C31.2969 45.7488 31.5957 47.2737 32.189 48.825C32.6855 50.1214 33.3975 51.4661 34.3071 52.824C35.7485 54.9729 37.7305 57.2141 40.1914 59.4861C44.2695 63.2522 48.3081 65.8538 48.4795 65.9593L49.521 66.6272C49.9824 66.9217 50.5757 66.9217 51.0371 66.6272L52.0786 65.9593C52.25 65.8494 56.2842 63.2522 60.3667 59.4861C62.8276 57.2141 64.8096 54.9729 66.251 52.824C67.1606 51.4661 67.877 50.1214 68.3691 48.825C68.9624 47.2737 69.2612 45.7488 69.2612 44.2854C69.2656 42.7342 68.9536 41.2268 68.3428 39.8074V39.8074Z" fill="#FF6C6C"/>
</svg>
