<svg width="100" height="100" viewBox="0 0 100 100" fill="none" xmlns="http://www.w3.org/2000/svg">
<circle cx="49.723" cy="49.8429" r="49.723" fill="white"/>
<path d="M67.7842 39.8057C67.1951 38.4418 66.3458 37.2058 65.2837 36.167C64.2208 35.1251 62.9676 34.2971 61.5923 33.7281C60.1662 33.1356 58.6366 32.8324 57.0923 32.836C54.9258 32.836 52.812 33.4292 50.9751 34.5498C50.5356 34.8179 50.1182 35.1123 49.7227 35.4331C49.3271 35.1123 48.9097 34.8179 48.4702 34.5498C46.6333 33.4292 44.5195 32.836 42.353 32.836C40.793 32.836 39.2812 33.1348 37.853 33.7281C36.4731 34.2993 35.2295 35.1211 34.1616 36.167C33.0981 37.2047 32.2486 38.4409 31.6611 39.8057C31.0503 41.2251 30.7383 42.7325 30.7383 44.2837C30.7383 45.7471 31.0371 47.272 31.6304 48.8233C32.127 50.1197 32.8389 51.4644 33.7485 52.8223C35.1899 54.9712 37.1719 57.2124 39.6328 59.4844C43.7109 63.2505 47.7495 65.8521 47.9209 65.9576L48.9624 66.6255C49.4238 66.92 50.0171 66.92 50.4785 66.6255L51.52 65.9576C51.6914 65.8477 55.7256 63.2505 59.8081 59.4844C62.269 57.2124 64.251 54.9712 65.6924 52.8223C66.6021 51.4644 67.3184 50.1197 67.8105 48.8233C68.4038 47.272 68.7026 45.7471 68.7026 44.2837C68.707 42.7325 68.395 41.2251 67.7842 39.8057V39.8057ZM49.7227 63.1494C49.7227 63.1494 34.0781 53.1255 34.0781 44.2837C34.0781 39.8057 37.7827 36.1758 42.353 36.1758C45.5654 36.1758 48.3516 37.9688 49.7227 40.5879C51.0938 37.9688 53.8799 36.1758 57.0923 36.1758C61.6626 36.1758 65.3672 39.8057 65.3672 44.2837C65.3672 53.1255 49.7227 63.1494 49.7227 63.1494Z" fill="#FF6C6C"/>
</svg>
